<?xml version="1.0" encoding="utf-8"?>
<!-- Generator: Adobe Illustrator 15.1.0, SVG Export Plug-In . SVG Version: 6.00 Build 0)  -->
<!DOCTYPE svg PUBLIC "-//W3C//DTD SVG 1.1//EN" "http://www.w3.org/Graphics/SVG/1.1/DTD/svg11.dtd">
<svg version="1.1" id="Calque_1" xmlns="http://www.w3.org/2000/svg" xmlns:xlink="http://www.w3.org/1999/xlink" x="0px" y="0px"
	 width="595.28px" height="348px" viewBox="0 0 595.28 348" enable-background="new 0 0 595.28 348" xml:space="preserve">
<g>
	<path fill="none" d="M243.415,87.675c-0.854-4.11-1.669-8.265-4.751-10.024C237.572,83.083,237.445,87.581,243.415,87.675z"/>
	<path fill="none" d="M305.729,62.501c-0.01,0-0.045,0-0.055,0c0.01,0.014,0.028,0.036,0.028,0.036
		C305.719,62.537,305.729,62.515,305.729,62.501z"/>
	<path fill="none" d="M267.971,83.642c0.834,4.891,11.766,4.932,12.2,13.409l0.171-0.009c0.712-7.345,4.863-11.063,8.396-15.42
		c-2.842-9.691-5.21-19.879-8.716-28.848c-0.677-1.137-1.354-2.251-2.08-3.339c-4.674,11.595-11.365,25.721-13.756,36.228
		C264.794,84.31,266.203,83.778,267.971,83.642z"/>
	<path fill="none" d="M320.636,30.802c-0.65,1.778-2.058,3.763-1.823,5.563c1.154-1.119,1.903-2.658,2.68-4.173
		C321.194,31.731,320.933,31.262,320.636,30.802z"/>
	<path fill="none" d="M191.54,96.455l2.833,0.018c1.949-1.512,4.187-2.675,5.613-4.746c-1.932-4.327-5.229-8.789-7.71-13.187
		c-1.034,4.038-2.495,9.401-1.755,15.213C190.754,95.67,190.754,95.67,191.54,96.455z"/>
	<path fill="none" d="M323.323,35.102c-0.09,0.415-0.162,0.825-0.162,1.263c0.235-0.14,0.397-0.401,0.578-0.591
		C323.612,35.548,323.459,35.332,323.323,35.102z"/>
	<path fill="none" d="M160.717,96.234l5.043,0.036c-2.238-6.402-1.489-15.984-4.543-21.534c-3.046,3.804-9.312,4.15-10.372,10.043
		C156.196,86.444,159.895,90.428,160.717,96.234z"/>
	<path fill="none" d="M315.167,73.554c-0.722-11.008,4.123-16.842,15.096-19.066c-0.271-0.993-0.532-2.012-0.803-3.005
		c0.279-0.194,0.55-0.379,0.83-0.564c-0.353-2.811-1.426-5.708-2.896-8.63c-3.627,4.936-7.76,9.366-10.937,15.42
		c-0.288,0.595-0.559,1.172-0.856,1.773c-0.371,0.803-0.731,1.611-1.074,2.477C312.298,67.572,311.648,72.661,315.167,73.554z"/>
	<path fill="none" d="M397.359,94.533c0.262-3.429,5.008-2.048,5.686-5.017c-1.688-3.312-2.257-7.787-2.815-12.291
		c-2.527-5.553-7.029-11.224-9.159-16.124c-3.771,3.703-7.562,7.489-11.018,12.1c0.74,0.153,1.508,0.312,2.373,0.483
		c0,0-3.284,4.137-3.212,4.39C396.746,70.947,397.965,86.272,397.359,94.533z"/>
	<path fill="none" d="M395.419,63.096c-0.378-1.137-2.057-3.374-1.543-4.809c-0.703,0.703-1.389,1.417-2.084,2.102
		C393.228,61.247,393.822,63.069,395.419,63.096z"/>
	<path fill="none" d="M375.018,97.692c-0.568-2.585-4.493-10.49,3.312-18.3c-4.655,4.657-10.845,14.812-9.754,18.245L375.018,97.692
		z"/>
	<path fill="none" d="M429.96,69.647c-1.731,5.617-2.706,7.516-3.312,13.833c-0.693,3.808-2.192,3.956,0.93,7.011
		C435.131,84.044,433.805,82.158,429.96,69.647z"/>
	<path fill="#00A0D1" d="M185.458,228.118c-0.623,1.669-1.172,3.059-1.66,4.178l-0.605,1.421h4.575l-0.604-1.421
		c-0.479-1.129-1.028-2.518-1.656-4.178H185.458z"/>
	<path fill="#00A0D1" d="M528.558,231.051c-1.57-1.909-3.185-5.784-7.562-8.365c-1.245-0.758-2.806-0.713-4.051-1.431
		c-2.347-1.397-2.165-7.182-1.084-12.361c0.442,0.556,1.372,0.415,2.12,0.686c-0.188-0.815-0.794-1.903-1.533-3.086
		c0.263-0.861,0.514-1.71,0.785-2.427c1.038-2.725,3.293-3.983,6.027-4.498c0.389,0.099,0.83,0.144,1.335,0.144
		c0.487,0,0.902-0.076,1.201-0.396c3.889-0.117,8.175,0.74,11.144,1.056c-6.551-3.884-6.858-7.304-7.644-9.416
		c0.073-0.126,0.154-0.207,0.198-0.243c6.119-3.709,10.098-4.205,14.014-9.962c1.272-2.386-0.82-10.001-2.03-10.823
		c-0.062-0.059-0.152-0.099-0.226-0.126c1.751-0.757,3.284-1.908,3.592-3.343c1.19,0.541,2.762,1.01,4.575,1.01
		c4.962,0,6.171-7.868,6.497-8.648c-0.85,0-0.67-1.759-1.354-1.759c0-0.799,0.341-1.196,0.341-1.583c0-0.799-2.083-1.972-2.94-2.166
		c-0.523-1.769-2.941-1.963-4.502-1.963c-3.926,0-6.506,6.126-6.506,6.126c0.17,0.389,0.324,0.573,0.324,0.988
		c-0.324-0.005-0.324,0.559-0.324,1.367c0.018,2.081,0.648,1.818,1.605,4.76c-0.072,0.595-0.37,0.912-0.957,0.92
		c-1.01-0.009-2.002-0.389-2.986-0.397c-0.965,0.009-1.588,0.803-1.957,1.606c-2.6-0.762-8.825,1.737-9.331,2.703
		c-0.135,0.216-0.369,1.073-0.578,1.674l-1.362-6.515l10.901-0.009c0-2.87-0.208-5.893-0.614-9.05
		c0.073-0.275,0.136-0.523,0.136-0.875c0-0.068-0.163-0.14-0.244-0.212c-0.071-0.5-0.154-1.002-0.226-1.512
		c0.578-0.158,1.093-0.433,1.381-0.975c0.352-0.677,0.055-0.884,0.055-0.884c0.369-0.695,1.723-1.651,2.065-2.31
		c2.211-4.124,1.516-11.208-4.483-15.417c-0.776-0.555-2.049-0.488-3.503,0.022c-0.514-1.688-1.028-3.37-1.569-5.062
		c0.199-0.351,0.343-0.753,0.451-1.304c0.19,0.068,0.46,0.095,0.785,0.113c0.966-0.018,2.662-1.367,2.635-3.023
		c0,0-1.218-1.615-2.175-2.066c0.046-0.054,0.117-0.126,0.19-0.199c6.704,3.749,14.789,8.239,19.634,9.898
		c1.012,1.309,4.512,2.111,6.804,2.111c0.532-0.013,1.048-0.193,1.561-0.393c0.687-0.401,0.687-0.401,0.687-1.367
		c-1.372-0.785-1.543-1.191-3.096-1.191c-1.028,0-1.19,0.406-2.418,0.406h-0.586c-0.298-0.099-0.561-0.198-0.867-0.298
		c-0.027-0.09-0.08-0.108-0.08-0.108c-0.046,0-0.064,0.018-0.072,0.045c-6.416-2.427-13.039-6.605-20.014-10.512
		c1.408-1.336,2.788-2.662,4.114-3.976c0.027,0.032,0.027,0.06,0.071,0.1c0.028-0.068,0.064-0.158,0.073-0.23
		c0.461-0.425,0.866-0.834,1.308-1.254c0.09,0.022,0.163,0.014,0.244,0.072c0.414,0.208,0.262,0.87,0.785,1.146
		c0.08,0.067,0.19,0.104,0.299-0.1c0.161-0.36,0.044-0.992,0.188-1.362c0.361-0.794,1.885-0.812,2.914-0.538
		c0.163-0.347,0.163-0.635,0.299-1.006c0.596-1.38,1.263-2.328,2.373-1.696c0.225,0.126,0.479,0.423,0.64,0.623
		c0.073,0.067,0.226,0,0.289-0.09c0.162-0.379-1.85-1.335-1.39-2.4c0.866-1.977,1.832-1.273,1.993-1.634
		c0.488-1.154-1.054-2.021-0.522-3.771c0.108-0.361,0.948-0.501,1.001-0.61c-0.315-0.167-1.488-2.729-1.551-2.91
		c0.469-0.442,1.381-0.519,1.993-1.046c-0.811-0.19-1.496-0.118-2.048-0.258l-1.389-1.809c0.315-0.442,1.036-0.307,1.262-0.889
		c0.117-0.23,0.064-0.438-0.044-0.465c-0.605-0.333-1.02,0.6-1.418,0.348c-0.612-0.348-0.929-0.519-0.64-1.205
		c0.145-0.253,0.263-0.298,0.307-0.424c0.036-0.117,0-0.289-0.162-0.415c-0.659-0.343-0.487,1.074-1.2,0.654
		c-0.505-0.284-0.668-0.808-0.523-1.448c-0.55-0.172-0.857,0.519-1.362,0.244c-1.229-0.704,0.136-1.529-0.886-2.084l-0.621,1.389
		c-0.343-0.054-0.84-0.054-1.155-0.226c-0.641-0.343-0.315-1.642-0.207-2.147c0-0.302-0.163-0.542-0.371-0.632
		c-0.08-0.081-0.08-0.081-0.161,0.028c-0.182,0.491,0.161,1.429-0.127,2.129c-0.262,0.568-0.812,0.704-1.336,0.415
		c-0.486-0.298-0.353-0.942-0.46-0.998c0.107,0.055-1.614,0.826-1.777,0.88c-0.09,0.244-0.207,1.047-0.271,1.177
		c-0.27,0.401-0.712,0.479-0.982,0.293c-0.434-0.244-0.687-0.812-1.183-1.101c-0.36,0.808,0.451,0.993,0.37,1.814
		c-1.164,2.67-3.627,0.708-3.835,1.191c2.157,2.359,0.921,1.668,1.391,3.257c-0.794,0.988-1.427-0.528-1.823,0.397
		c-0.316,0.717,1.623,0.348,0.767,2.319c-0.198,0.487-0.812,0.433-0.975,0.775c-0.135,0.361,0.027,0.596,0.225,0.704
		c0.092,0.059,0.353,0.059,0.488,0.127c0.136,0.216,0.524,0.758,0.37,1.078c-0.099,0.266-0.442,0.469-0.596,0.839
		c0,0,0.063,0.171,0.019,0.284c-0.325,0.704,2.913,2.653,2.002,4.773c-0.251,0.578-0.693,0.46-0.92,0.934
		c-0.054,0.113-0.054,0.411,0.045,0.47c0.732,0.397,0.875-1.123,1.786-0.61c1.138,0.632,0,1.48,0.921,2.003
		c0.317,0.154,0.515-0.315,0.984-0.198c-0.055-0.171,0.974,1.877,1.02,2.039c0.253-0.586,0.911-0.938,1.598-0.721
		c0.188,0.126-0.108,0.825,0.297,1.073c0.315,0.144,0.713-0.785,1.118-0.537c0.299,0.131,0.299,0.338,0.299,0.582
		c-1.615,1.074-3.519,2.337-5.631,3.673c-0.253-0.126-0.505-0.262-0.767-0.393c0.161-0.067,0.334-0.121,0.514-0.148
		c0-1.769-1.731-2.17-3.609-2.17c-0.379,0-0.74,0.045-1.091,0.136c-0.37-0.185-0.74-0.343-1.093-0.505
		c-9.049-22.883-20.924-42.026-25.607-41.006c2.139-4.646,4.078-9.384,5.981-14.139c-0.477-0.334-0.937-0.614-1.397-0.921
		c3.627-10.575,10.711-16.061,14.725-25.12c-2.715-0.515-3.717,3.654-5.846,3.086c0.686-1.669,3.411-4.737,2.67-7.047
		c-2.842,0.595-2.725,4.02-4.745,5.332c-0.163-3.537,3.735-6.776,1.634-8.274c-3.024,1.751-3.367,6.037-5.641,8.455
		c-0.497-2.825,3.528-6.388,0.64-8.225c-2.679,3.37-3.003,8.396-5.468,11.934c-0.829-4.692-3.355-6.551-5.252-5.301
		c4.721,9.452,3.438,15.84,0.228,21.448c-1.056-0.352-2.085-0.627-3.113-0.767c-1.327,3.257-2.382,6.708-2.916,10.512
		c-3.049,0.907-1.325-3.253-2.842-4.002c-3.383,0.085-0.758,6.556-2.806,8.021c-0.506-0.699-0.875-1.525-1.264-2.346
		c-0.062,0.117-0.207,0.208-0.297,0.325c-0.082-4.042,1.055-8.184,4.458-11.477c-1.544-1.187-4.071-0.442-5.415,2.499
		c-1.777-2.824-1.399-6.199-3.365-8.96c-2.852,0.673,0.298,3.808-0.524,5.576c-1.732-2.034-1.479-4.936-3.96-6.673
		c-2.103,0.573,0.992,3.461,0.379,5.78c-1.643-1.263-1.083-3.488-3.592-4.439c-0.956,1.39,1.083,3.934,1.471,5.179
		c-1.985-0.045-2.328-2.978-4.854-3.167c2.084,5.811,8.282,12.898,10.574,19.598c-0.117,0.059-0.207,0.153-0.324,0.208
		c0.856,1.967,1.091,4.25,0.099,5.933c-3.24,0.745-1.218-4.083-4.72-2.982c-0.261-1.137-0.161-1.899,0.01-2.58
		c-2.788-2.802,1.371-8.78-6.714-13.373c-8.878,4.332-1.769-3.316-2.228-9.036c-0.551,0.099-0.993,0.148-1.498,0.221
		c3.654-8.481,8.383-15.709,10.782-24.864c-3.952-0.085-4.412,5.996-7.525,5.676c0.604-2.504,3.709-7.449,2.147-10.535
		c-3.889,1.489-2.941,6.271-5.486,8.604c-1.037-4.968,3.736-10.418,0.425-12.033c-3.854,3.145-3.339,9.267-6.02,13.191
		c-1.335-3.88,3.502-9.816-1.001-11.748c-2.969,5.369-2.283,12.52-4.963,18.083c-2.229-6.424-6.208-8.477-8.599-6.285
		c5.991,8.319,7.732,15.281,7.236,21.597c-0.433,0.073-0.875,0.118-1.317,0.213c0,0-0.595,1.57-0.379,3.018
		c-4.187,0.568-1.705,6.434-6.073,6.821c0.695,2.22,4.449,3.338,1.904,6.027c-4.719-2.991-6.298-9.325-8.815-14.685
		c2.617-4.002,5.793-6.988,7.949-11.283c-1.777-0.416-2.554,2.3-3.952,1.858c0.523-1.074,2.391-3.005,1.968-4.557
		c-1.887,0.307-1.896,2.558-3.285,3.375c0-2.341,2.671-4.354,1.336-5.4c-2.039,1.06-2.392,3.875-3.971,5.4
		c-0.253-1.886,2.509-4.105,0.649-5.409c-1.84,2.143-2.201,5.44-3.935,7.706c-0.396-3.114-2.002-4.422-3.302-3.65
		c-0.668-1.124-1.335-2.256-1.958-3.402c-0.171,0.095-0.37,0.108-0.56,0.189c-1.886-3.546-2.554-7.706,0.046-13.769
		c-1.291-0.794-2.915,0.55-3.312,3.817c-1.759-2.364-2.111-5.806-3.997-8.058c-1.859,1.363,0.911,3.69,0.668,5.64
		c-1.588-1.574-1.94-4.516-3.998-5.63c-1.353,1.101,1.327,3.199,1.327,5.63c-1.381-0.839-1.39-3.19-3.321-3.51
		c-0.414,1.606,1.472,3.646,1.994,4.778c-1.397,0.446-2.183-2.377-3.97-1.954c2.527,5.238,6.795,8.618,9.186,13.968
		c-0.315,0-0.613,0.082-0.956,0.036c2.337,6.506,3.997,13.215,3.411,19.915c-0.885,10.165-9.926,15.583-11.298,25.081
		c-2.156-2.711-4.846-6.817-6.461-11.122c0.343-3.289,1.615-6.551,4.395-9.23c-1.543-1.191-4.078-0.442-5.432,2.499
		c-1.76-2.824-1.39-6.199-3.348-8.951c-2.869,0.664,0.298,3.799-0.523,5.568c-1.751-2.03-1.48-4.936-3.952-6.677
		c-2.12,0.578,0.975,3.469,0.36,5.784c-1.588-1.218-1.173-3.329-3.42-4.317c2.987-3.046,5.874-6.208,8.383-9.976
		c-3.726-1.357-6.108,4.259-8.969,2.951c1.381-2.183,5.938-5.847,5.459-9.276c-4.169,0.144-4.81,4.981-7.958,6.362
		c0.604-5.03,6.875-8.654,4.259-11.252c-4.665,1.736-6.154,7.697-9.952,10.548c-0.027-4.106,6.496-8.167,2.859-11.441
		c-4.557,4.114-6.226,11.107-10.539,15.51c-0.045-6.812-3.148-10.034-6.117-8.734c4.231,13.959,1.271,22.558-4.241,29.551
		c-0.604,0.09-1.209,0.181-1.877,0.307c-2.68,2.888-5.404,5.54-7.724,7.923c-2.571-4.422-0.117-10.647-8.509-8.013
		c1.354-9.33-3.601-15.822-9.456-19.012c-1.245-2.49-1.977-4.886-2.473-7.128c-0.289,0.189-0.596,0.401-0.884,0.578
		c-1.526-6.844-0.759-14.672,5.26-20.528c-2.049-1.57-5.378-0.587-7.191,3.32c-2.328-3.749-1.841-8.22-4.439-11.87
		c-3.763,0.885,0.415,5.031-0.668,7.377c-2.318-2.689-1.958-6.542-5.269-8.838c-2.789,0.771,1.325,4.597,0.496,7.66
		c-2.166-1.673-1.436-4.633-4.747-5.887c-1.28,1.845,1.426,5.21,1.958,6.866c-2.635-0.054-3.076-3.951-6.433-4.2
		c0.865,2.422,2.282,4.994,3.906,7.669c-2.436,3.506-3.239,8.238-5.838,11.645c-0.659-5.125-3.303-7.264-5.423-6.019
		c5.721,12.863,1.841,20.289-3.673,27.196c-4.755-4.069-9.212-10.187-12.082-16.986c-0.812-6.262,0.158-13.512,3.998-22.445
		c-0.65-0.388-1.313-0.519-1.994-0.478c0.483-1.011,0.939-2.031,1.308-3.086c-3.244,0.252-3.668,4.141-6.226,4.195
		c0.519-1.651,3.14-5.026,1.891-6.858c-3.208,1.246-2.472,4.21-4.575,5.879c-0.798-3.072,3.154-6.898,0.47-7.665
		c-2.535,1.836-2.892,4.638-4.042,7.065c-0.212-0.55-0.428-1.119-0.65-1.661c0.573-1.75,1.11-3.411-1.042-3.934
		c-0.158,0.226-0.208,0.469-0.347,0.7c-0.808-1.665-1.729-3.227-2.883-4.62c-3.411,2.477-0.555,6.276,0.929,10.039
		c-0.185,0.78-0.383,1.552-0.59,2.328c-2.893-4.061-4.119-9.935-8.577-12.339c-2.987,2.386,1.9,6.754,3.046,11.934
		c-0.591-0.136-1.146-0.118-1.688,0.036c-1.746-2.571-2.625-6.136-6.271-6.736c-1.051,3.979,3.646,9.001,4.913,11.78
		c-3.447,1.127-5.387-5.875-9.835-4.801c3.185,6.596,7.494,11.969,11.748,17.415c-6.293,11.546-14.125,21.471-18.01,35.543
		c-5.26,14.058-7.977-1.372-9.591-3.018c-0.74-2.585-1.011-4.58-1.011-6.673c-2.012,0-0.875,1.254-1.375,3.204
		c0,0-0.465-5.522-1.395-5.522c-1.656,0,0.284,12.064-1.764,0.005c-1.083-3.872-4.796-4.945-8.495-6.015
		c1.642-5.567,4.899-6.145,5.604-8.639c-0.745-1.543-3.654,1.335-5.626,3.126c0.582-3.231,4.448-9.231,3.284-10.395
		c-2.174-0.758-3.456,4.692-6.113,7.877c-0.942-3.474,3.239-7.625,1.881-11.018c-2.377-1.47-4.769,5.969-6.452,9.818
		c-1.354-3.641,0.953-9.809-1.105-9.809c-3.938,2.495-3.109,11.13-4.71,16.106c-2.517-1.669-3.09-8.572-6.618-7.083
		c-0.474,3.537,1.971,6.857,2.756,12.371c-6.398,3.491-5.942,12.578-4.616,17.712c-4.678-3.998-7.683-8.473-9.632-15.294
		c1.688-1.543,3.988-2.824,7.331-3.672c-0.149-1.435-2.08-1.859-4.732-0.298c0.748-2.644,3.104-4.886,3.699-7.561
		c-2.071-0.619-2.211,2.779-3.809,3.726c0.262-2.093,2.256-4.042,1.9-6.199c-1.593-0.388-1.619,2.815-3.424,4.205
		c-0.167-1.494,1.57-2.869,0.704-4.466c-1.435,0.604-1.85,3.176-2.391,4.205c-1.146-0.771,0.51-2.982-0.831-4.069
		c-1.295,2.571-1.908,5.225-2.599,7.859c-0.253-0.586-0.537-1.271-0.947-2.283c-3.754-7.472-9.331-20.257-0.758-29.849
		c-2.337-0.163-3.7,1.272-4.792,3.492c-2.125-0.393-1.299-8.568-2.86-10.133c-1.476,0-0.667,4.75-0.533,7.236
		c-2.103-0.424-1.858-8.189-3.799-8.189c-1.931,1.024,1.228,7.422,0.966,9.181c-2.969,0.479-2.495-7.747-4.719-8.049
		c-1.489,1.493,5.278,16.829-1.588,5.811c-4.891,0.601,6.452,4.706,12.957,44.345c-3.47,9.326-9.122,16.382-12.235,26.091
		c-4.064-6.75-13.233-19.328-3.808-26.073c3.862-8.685-4.259-6.294-3.235-11.166c-2.152-0.573-6.113,4.367-8.532,6.785
		c0.33-2.544,7.931-8.779,7.074-9.623c-2.048-1.065-6.821,4.128-8.992,6.483c-5.269,3.961,2.739-7.182,1.403-8.517
		c-0.834-0.831-7.66,8.824-9.339,10.904c-0.857-2.062-1.06-2.806-1.434-3.916c-0.749-1.94-1.097-2.287-3.276-2.396
		c6.605,13.715-7.228,20.939-18.263,28.044c0.93-1.98,2.491-3.962,5.053-5.974c-0.718-1.236-2.67-0.844-4.448,1.66
		c-0.383-2.725,0.848-5.725,0.298-8.409c-2.139,0.275-0.885,3.438-1.967,4.94c-0.595-2.025,0.429-4.597-0.776-6.429
		c-1.602,0.293-0.325,3.222-1.417,5.233c-0.767-1.309,0.275-3.257-1.165-4.376c-1.073,1.146-0.415,3.664-0.483,4.814
		c-1.362-0.249-0.744-2.928-2.413-3.379c-0.271,5.608,1.908,10.417,1.327,16.143c-0.126,0.099-0.276,0.194-0.397,0.298
		c-2.996-4.886-6.213,6.686-6.614-7.012c-1.954-19.31-25.094-22.963-15.168-46.117c-1.832-1.119-4.143,0.812-4.711,5.432
		c-2.499-3.361-3.014-8.251-5.684-11.437c-2.653,1.926,1.308,5.233,0.956,8.017c-2.26-2.251-2.761-6.434-5.685-8.003
		c-1.94,1.543,1.891,4.529,1.891,8.003c-1.963-1.199-1.99-4.538-4.719-4.999c-0.601,2.292,2.106,5.17,2.828,6.776
		c-1.98,0.65-3.095-3.375-5.648-2.765c4.476,9.285,12.948,14.315,15.137,26.045c-4.034,1.069-12.655,13.332-21.006,30.128
		c-1.331,0.938-2.748,1.719-3.054,1.719l2.183,0.028c-1.551,3.216-3.113,6.563-4.606,10.051c-2.161,0.591-4.209,1.773-5.711,3.84
		c-0.126,0.045-0.289,0.139-0.501,0.225c-0.315,0.28-0.352,0.614-0.352,0.992c-4.944,0.059-9.767,0.871-11.639,3.637
		c0,0,0,0.071-0.037,0.139c-0.997,0.285-1.994,0.601-3.027,0.889c-0.049-0.509-1.367-2.255-2.747-3.221
		c-0.586-0.425-1.362-0.51-1.561-0.158c-0.533,0.952,1.006,2.63,2.499,3.929c-8.946,2.72-17.771,5.802-17.36,8.256
		c5.712-3.063,12.344-4.836,19.265-6.741c0.181,0.145,0.329,0.216,0.379,0.262l0.758,0.063c1.805,1.281,3.284,4.673,2.544,6.027
		c-0.352,0.686-0.862,0.808-1.213,1.497c-0.185,0.352-0.366,0.686-0.068,0.894l0.469-0.136c0,0,0.122,0.559-0.243,1.237
		c-0.528,1.037-1.827,1.082-3.019,0.243c-2.396-1.678-3.036-3.563-6.325-5.855c-1.205-0.848-2.008-0.902-2.64-0.46
		c1.769,1.272,3.519,3.429,5.311,4.702c1.376,0.983,2.892,1.651,4.064,2.409c-0.297,0.631,0.578,4.146,0.998,7.823
		c-0.609,0.108-0.627,1.141-0.618,1.435c0.235,0,0.523,0,0.74-0.072c0.167,2.36,0.077,4.656-0.704,6.163
		c-1.479,2.729-3.952,1.922-5.937,3.37c2.084,1.444,4.765-0.442,6.849,1.033c-0.181,0.343,1.142,1.737,0.568,2.743
		c-0.181,0.334-1.137,0.609-1.317,0.965c-0.189,0.33,0.059,1.443,0.334,1.661c1.213,0.839,1.525-1.282,3.026-0.253
		c0.713,0.988,0.826,1.543,0.465,2.233c-0.36,0.663-1.038,1.132-1.407,1.841c-0.194,0.329-0.194,0.329,0.108,0.537
		c0.596,0.392,1.868,0.366,2.463,0.794c0.36,0.244,0.632,0.605,0.812,1.002c-0.082,1.308-0.145,2.634-0.163,3.92
		c-0.031,0.068-0.059,0.117-0.081,0.171c-0.216,0.374-0.415,0.69-0.641,1.046c-0.063,0.041-0.126,0.082-0.235,0.082
		c-0.37,0-0.731-0.149-1.218-0.149c-0.699,0-0.948,1.236-0.948,1.98c0,0.614,0.361,0.614,0.361,1.056c0,0.158,0,0.158-0.113,0.321
		c-0.122,0.289-1.205,1.818-1.782,1.818c-0.388,0.018-0.262-0.451-0.984-0.451c-0.595,0-1.083,0.153-1.083,1.051
		c0,1.223,0.84,1.367,0.853,2.884c0,1.687-2.427,1.84-2.427,3.528c0.005,1.628,1.583,1.786,1.593,3.767
		c-0.108,1.213-0.731,1.971-0.717,3.041l0.005,1.53c-0.019,0.149,1.316,1.99,1.316,2.418c0,5.905,1.571,2.562,3.727,6.222
		c1.2,0.897-0.108,3.632,2.306,3.632c0.712,0,3.361,1.078,3.469,1.977c-5.274,0.004-6.839-1.977-7.57-3.483
		c-1.566,0-1.552,1.972-2.761,1.958c-1.936,0.014-2.779-1.494-2.779-3.47c0-0.595,0.135-1.511,0.144-2.44
		c-0.009-0.596-0.144-1.227-0.505-1.219c-1.074,0-1.074,1.688-1.074,2.743c0,1.069,1.435,1.813,1.435,3.935
		c-0.108,0-0.84,0.763-0.84,1.078c0,0.591,0.983,0.157,0.983,0.456h-0.144c0.243,0.734,1.1,1.362,1.574,1.674
		c-0.077,0.541-0.447,0.911-0.83,1.159c0.171-0.248,0.243-0.487,0.243-0.74c0.014-0.293-0.221-0.577-0.663-0.577
		c-1.597,0.284-5.207,1.154-5.207,2.274c0,0.6,0.443,1.168,0.677,1.168c0.217,0,0.217-0.298,0.217-0.568
		c0.234,0,0.234,0.568,0.451,0.568c0.262,0,0.569-0.041,0.893-0.113c-0.528,0.451-0.708,0.745-0.708,0.926
		c0,0.298,0.257,0.455,0.257,0.455h-0.257c-0.601,0-2.875,3.059-3.005,3.041c-0.834,1.213-2.509,1.376-2.509,5.314
		c0,0.776,0.312,0.84,0.538,1.376c-6.163,2.125-10.936,4.295-10.638,6.109c3.446-1.842,7.268-3.204,11.27-4.458
		c0.438,0.659,0.997,1.376,0.997,1.376c0.126-0.019,0.113-0.136,0.234-0.122c0.375,1.801,3.126,2.379,3.749,6.027
		c0,1.088-3.374,5.014-3.482,5.014c-0.614,0-2.053-1.81-3.014-1.823c-2.152,0.014-3.221,3.596-3.492,3.627
		c0.018,0.267,0.072,0.492-0.244,0.492c0.136,0.596,0.496,1.223,0.496,1.493c0,0.158-0.117,0.315-0.252,0.315
		c1.34,3.199,1.57,3.483,4.706,3.483c0.221-0.446,1.2-0.735,1.43-1.362c0.37-0.912,1.336-2.572,1.336-3.334
		c0-0.618-0.732-1.376-0.732-2.135c0,0,1.449-2.273,2.518-2.273h1.58c0.108-0.022,2.265-0.921,2.143-0.925
		c0.122,0.004,0.249,0.312,0.249,0.312c0.83,0,1.443-0.308,2.283-0.312c0.37,0,0.731,0.004,1.086,0.167
		c0.357,0.145,3.005,1.051,3.005,1.349c0.975-0.14,1.917-0.298,2.765-0.613c0.108,0.758,2.518,0,2.653,0.925
		c0.118-0.167,0.352-0.167,0.595-0.325c0,0.316,0.117,0.325,0.117,0.325c0.966-0.009,3.357-0.167,5.053-1.231
		c0,0-0.125-0.162-0.125-0.298h0.848c1.074,0,1.913-1.227,2.161-1.227l-0.005,0.157c1.579-2.03,2.346-2.783,2.729-3.067
		c-0.041-0.027-0.081-0.086-0.081-0.289c0-0.141,0.121-0.141,0.121-0.141h0.348c0-0.441-0.113-0.6-0.113-0.6
		s2.996-3.041,2.996-7.603c0-1.452-0.226-2.765-0.583-4.064c0.411-0.239,0.808-0.447,1.219-0.699
		c-0.059,0.131-0.095,0.284-0.095,0.433c0,0.267,0.234,0.267,0.681,0.267c0.92-0.145,1.583-0.627,2.089-1.295
		c2.986,1.11,5.847,8.617,6.722,13.905c0.613,3.74-1.525,7.15-4.444,10.105c-0.05,0.022-0.077,0.072-0.113,0.095
		c-0.086,0.113-0.199,0.208-0.28,0.321c-0.704-0.366-1.344-0.664-1.583-1.313c-1.43,0.302-2.526,1.069-3.244,1.818
		c-0.848,1.064-0.952,2.138-0.952,3.356c0,0.239,0.023,0.568,0.059,0.907c-1.264,0.934-2.455,1.791-3.425,2.589
		c1.476-0.388,2.729-0.555,3.812-0.641c0.393,1.326,1.064,2.45,2.08,2.428l2.138,0.022c0.253,0.789,0.492,1.606,0.591,2.301
		c-0.009-0.288-0.009-0.555,0.216-0.555c0.451,0,1.363,3.397,5.215,3.397c0.46,0,2.031-2.274,2.942-2.274
		c0.226,0,0.677,0.28,1.128,0.28c0-1.535,0.667-2.893,0.975-4.345c0.965,0.712,2.273,1.569,3.722,2.554
		c-0.384,0.099-0.953,0.248-1.773,0.699c1.443,3.162,1.66,1.204,1.668,3.482c0,1.056-1.668,2.729-1.668,2.729
		c0.013,1.061,0.73,2.144,0.73,2.576c0,0.307-0.122,0.623-0.108,0.907c0,0,0.108,1.069,0.586,1.069l-0.013-0.158
		c0.37,0.623,2.066,0.623,2.066,1.674c0,1.575,0.582,2.688,1.115,3.456c-2.066,1.561-3.655,2.644-3.655,3.654
		c0,2.847-3.835,2.256-3.821,3.419h0.203c-0.667,0-4.985,1.724-4.985,2.595h0.216c-0.663,1.426-3.162,0.275-3.171,2.856
		c0.009,1.416,1.385,1.989,2.301,1.989c0.884,0,2.03-0.266,3.167-0.266c1.119,0,2.269,0.83,2.269,2.265
		c0,0.555-0.446,1.435-0.446,2.025c0.009,0.279,0.009,0.279,0.216,0.279c0.433,0,0.902-0.279,1.353-0.279
		c0.451,0,0.677,0.279,0.907,1.128c0,1.422-1.132,0.87-1.132,2.012c0,0.303,0.456,0.839,0.69,0.839c0.226,0,0.672-0.555,0.894-0.555
		c0.685,0,0.915,1.426,1.132,1.426c0.008,2-1.801,3.162-1.801,5.148c1.358-0.849,1.809-2.865,3.624-2.865
		c2.697-0.009,6.532,5.942,7.246,5.987c-0.046,1.082-0.217,2.399-0.226,3.727l0.009,0.041c-0.717,0.392-1.236,1.133-1.372,2.458
		c-0.59-0.297-0.97-0.618-1.208-0.911c-1.787,0.479-1.566,0.185-3.474,1.854c0,2.115,0.252,4.543,3.004,4.543
		c1.209-0.014,1.448-2.572,2.292-2.572c0.708,0,0.839,0.897,2.161,0.897c1.57-0.175,2.518-2.887,2.518-2.887
		c-0.004-2.441-2.053-3.677-2.053-3.794c-0.389,0-0.754,0.041-1.097,0.085c-0.162-0.93-0.312-1.768-0.312-2.86
		c0-1.149,0.434-2.021,1.11-2.021c0.465,0,0.695,0.294,0.695,0.294l-0.23,0.274c0,0.303,0.23,0.303,0.456,0.303
		c0.451,0,0.681-0.303,1.137-0.303c0.912,0,2.03,2.324,2.039,4.016l-0.235,0.582c0,0.297,0.009,5.44,1.137,5.44
		c0.244,0,0.474-0.596,0.474-1.169c0-1.402-0.483-3.144-0.699-3.144c0.469-0.56,0.216-2.012,0.897-2.012
		c0.465,0.302,0.7,0.302,0.7,0.302c2.815-0.361,5.802-6.633,7.674-11.279c-0.496,1.665-0.987,3.339-1.434,5.035
		c-0.952,2.044-1.81,5.752-1.737,5.513c0.09,0.099,0.144,0.172,0.194,0.275c-1.471,5.726-2.802,11.5-3.938,16.932
		c1.055-2.77,2.697-7.208,4.665-12.186c1.128,3.086,5.144,4.133,5.365,4.535c3.009,0,5.625-1.215,5.635-1.507
		c-0.009-0.141-0.117-0.141-0.226-0.141c1.06,0,1.75-1.479,1.967-1.795c-0.027-0.027-0.054-0.113-0.059-0.203
		c0.004-0.145,0.6-0.299,0.6-0.46c0-0.141,0-0.141-0.117-0.141c0-0.74,0.834-4.097,1.804-4.092c0.46,0,1.069,0.279,1.439,0.279
		c0.113-0.461,1.548-1.512,1.548-1.637c0-0.177,0-0.177-0.104-0.177c2.377,0,2.747-3.34,2.747-3.496
		c0.506,0,0.506-0.456,0.506-1.047c0-0.785-0.38-1.692-0.389-2.449c0-0.457,0.122-1.047,0.122-1.49c0-0.324-0.122-0.613-0.122-0.798
		c0-0.14-1.321-3.637-2.531-3.637c-0.113,0,0,0.167-0.104,0.167c0,0-0.149-0.167-0.366-0.604c-0.371-0.604-1.083-0.776-1.083-1.214
		c-1.566,0-2.648,0.623-4.092,0.623h-0.975l0.019,0.298c-0.624,0-1.697,3.491-3.123,3.501c-0.667,0-1.506,0.884-2.476,1.723
		c3.112-6.384,6.397-11.481,9.19-12.213c3.393-0.879,12.086,4.864,20.095,6.371c0.307,6.144-0.208,11.6-1.679,15.579
		c0.091,0.541,0.262,0.982,0.411,1.389c-1.159-0.13-1.57-1.19-2.81-1.19c-0.718,0-1.453,0.278-2.166,0.577
		c-2.762,0.023-3.971,5.807-3.971,8.066c0.009,3.822,2.662,5.013,3.149,5.035c0.252,0.451,1.074,1.047,1.318,1.358
		c2.314-0.027,4.606-0.609,5.675-2.256c0.74-0.073,2.043,0.315,2.662,0.157c4.07-1.073-1.89-24.448,6.912-26.744
		c1.345-0.353,2.175,0.315,4.188-0.212c0.676-0.162,1.222-1.195,2.589-1.543c1.345-0.375,0.845,9.542,6.254,8.157
		c2.852-0.76,3.221-3.542,3.803-6.263c0,0.23,0,0.474,0,0.731c0.582,0.441,1.547,5.611,1.682,5.611v-0.283
		c-0.009,0.414,0,1.637,0.835,1.655c0.37,0,0.609-0.758,0.609-0.916c0-1.321-1.047-7.399-2.77-8.27
		c0.55-1.895,1.484-3.541,3.78-4.138c8.13-2.139,8.988,7.444,12.371,6.569c6.75-1.746-1.967-11.969,8.861-14.775l10.562-0.1
		c1.195-5.644,3.731-11.64,8.734-15.623c0.329,0.117,0.708,0.207,1.097,0.302c-0.722,1.169-1.286,2.413-1.286,2.996
		c1.706-0.014,2.333-1.589,2.554-1.589c0-0.415,0.099-0.825,0.252-1.168c0.74,0.041,1.484,0,2.252-0.104
		c-2.161,6.159-9.28,10.941-8.293,13.242c0.943,2.297,1.922,4.62,4.967,2.585c2.45-1.643,2.716-4.769,5.139-6.397
		c1.538-0.014,3.708-0.492,4.02,0.294c0.975,2.305-10.12,39.296-10.435,38.533c0.315,0.763,1.863,0.709,2.472,0.325
		c1.218-0.826,14.649-28.491,17.627-34.429c3.401,0.668,8.73,4.029,10.652,8.685c0.641,1.53-6.682,6.411-4.024,16.485
		c0.929,0.361,1.858,0.732,3.085-0.094c3.059-2.039,4.782-9.1,6.592-12.286c6.212,1.787,10.841,1.665,15.208,4.692l1.146,12.006
		c0.325,0.83,2.197,1.543,3.415,0.731c2.455-1.634,1.706-9.01,4.142-10.64c1.836-1.231,5.274,1.386,6.253,3.722
		c1.286,3.061,0.415,6.623,1.697,9.684c0.031,0.062,0.067,0.117,0.113,0.203v1.795c0.442,0,0.988,0.058,1.344-0.127
		c0.424,0.353,0.826,0.582,1.056,0.424c1.231-0.824,3.216-11.03,5.053-12.271c1.57-1.033,10.675-3.443,16.359-2.433
		c0.469,2.165,1.471,5.008,1.471,4.796c0.018,3.47,0.641,3.213,0.641,3.47c0.018,0.258-0.208,0.258-0.208,0.505
		c1.047,2.672,1.923,3.199,2.96,3.199c0.117,0,0.226-0.045,0.325-0.076c0.433,1.633,0.947,3.253,1.561,4.768
		c0.316,0.746,0.649,1.53,1.246,1.119c7.939-5.282-3.998-17.067,8.237-25.201c2.581-1.733,8.752-5.815,12.092-3.149l-0.939,0.186
		c-0.18,0.591-0.343,1.19-0.343,1.786c0,0.6,0.343,0.776,1.029,0.776c0.812,0,1.154-0.659,1.29-1.558
		c0.163,0.244,0.307,0.502,0.415,0.809c0.992,2.341,1.028,4.263,1.669,5.806c1.272,3.083,3.177,5.789,5.982,6.85
		c4.16,8.085,16.459,39.363,19.527,37.297c-6.687-10.3-11.271-25.03-18.291-38.095c-0.37-2.713,0.189-7.053-2.084-12.44
		c-0.1-0.226-0.234-0.455-0.37-0.693c6.136-0.85,7.309-14.451,13.905-10.518c4.385,2.599-3.312,21.164-0.189,23.009
		c1.777,1.07,3.88-2.057,5.702-5.797c0.207,0.045,0.379,0.027,0.406,0.045c1.605,0,2.437-1.362,2.418-3.441
		c0.019-1.245-0.153-1.959-0.415-2.374c0.37-0.875,0.641-1.673,0.92-2.359c6.867,4.088,12.533,9.398,9.285,18.083
		c-0.894,2.364-2.392,4.35-3.266,6.727c-0.325,0.88-0.551,1.813-0.714,2.739c-0.054-0.159-0.08-0.187-0.08-0.187
		c0-0.69,0.271-1.055,0.271-1.376c0-1.724-5.974-1.724-5.974-1.724c-0.262,0.704-0.542,1.038-0.821,1.399
		c-1.606,2.387-1.598,4.772-2.147,5.468c0,0.343,0.271,0.686,0.271,0.686c0.279,0,0.271-0.343,0.271-0.343
		c0.009,1.033,0.009,1.71-0.289,2.414c0.298,0.315,0.578,0.315,0.578,0.315c0.271,0,0.271-0.315,0.271-0.667
		c0.802,0.338,0.802,0.653,0.802,1.705c0.542-0.339,0.812-0.339,1.354-0.339c0,0,1.931,3.926,2.823,5.979
		c-0.667,2.941-1.092,6.329,0.118,7.057c0,0,0.92-0.442,1.228-1.227c0.856-2.37,1.073-7.054,2.544-10.982
		c2.671-7.124,11.875-9.325,15.719-19.603c1.002-0.596,2.102-0.916,3.257-1.084c0.145,0.083,0.28,0.083,0.416,0.159
		c-0.028-0.046-0.037-0.104-0.046-0.203c0.1-0.027,0.234-0.027,0.361-0.041c0.126,0.186,0.288,0.384,0.396,0.384v-0.343v-0.06
		c5.197-0.239,11.145,2.725,15.466,5.298c1.335,6.572-2.165,16.047-0.279,17.147c1.867,1.142,3.744,2.234,5.206-1.683
		c1.183-3.171-0.117-5.878,1.065-9.028c1.208-1.186,2.725-3.194,3.356-2.823c1.84,1.128,10.62,39.111,9.988,38.723
		c0.632,0.389,1.85-0.815,2.13-1.614c0.596-1.58-1.868-33.91-2.302-40.925c0.623-0.411,1.381-0.781,2.211-1.111v0.187
		c0,0.396-0.027,0.784,0.163,0.969c-0.506,0.005-0.523,0.592-0.506,1.386c0,0.785,0,1.77,0.153,2.175
		c1.543-0.619,1.209-1.772,1.381-3.561c-0.334,0-0.523-0.4-0.523-0.771c0-0.198,0.045-0.47,0.082-0.7
		c3.085-1.051,6.92-1.335,9.682,0.285c1.245,0.758-2.292,10.223,4.637,16.236c0.921-0.409,1.814-0.825,2.419-2.409
		c1.471-3.915-0.505-10.922-0.604-14.807c5.847-3.298,9.483-6.911,14.401-7.827l6.632,8.752c0.658,0.37,2.49-0.438,3.076-2.017
		c1.174-3.154-2.959-8.482-1.768-11.648c0.884-2.387,4.882-2.883,6.767-1.773c2.491,1.493,3.475,4.963,5.983,6.456
		c0.631,0.37,2.823,0.69,3.095-0.085c0.587-1.58-2.681-11.248-1.805-13.617c0.875-2.346,9.022-13.922,14.239-15.624
		c4.051,3.38,7.245,7.179,10.962,9.398c0.65,0.397,1.272,0.749,1.571-0.036c3.825-10.232-11.325-10.575-5.442-26.366
		c1.463-3.942,5.298-14.197,10.296-11.211c1.859,1.105,2.824,2.612,4.078,3.365c2.499,1.484,5.288,2.188,8.059,0.935
		c7.165,3.312,31.87,18.962,33.35,15.015C551.062,244.423,540.405,236.157,528.558,231.051z M426.648,83.48
		c0.605-6.316,1.58-8.216,3.312-13.833c3.845,12.51,5.171,14.396-2.382,20.844C424.456,87.436,425.955,87.288,426.648,83.48z
		 M393.876,58.287c-0.514,1.435,1.165,3.672,1.543,4.809c-1.597-0.026-2.191-1.849-3.627-2.707
		C392.487,59.704,393.173,58.99,393.876,58.287z M380.053,73.202c3.456-4.611,7.246-8.396,11.018-12.1
		c2.13,4.899,6.632,10.57,9.159,16.124c0.559,4.503,1.127,8.979,2.815,12.291c-0.678,2.969-5.424,1.588-5.686,5.017
		c0.605-8.261-0.613-23.586-18.146-16.458c-0.072-0.253,3.212-4.39,3.212-4.39C381.561,73.514,380.793,73.355,380.053,73.202z
		 M378.329,79.392c-7.805,7.811-3.88,15.715-3.312,18.3l-6.442-0.055C367.484,94.204,373.674,84.048,378.329,79.392z
		 M323.323,35.102c0.136,0.23,0.289,0.446,0.416,0.672c-0.181,0.19-0.343,0.451-0.578,0.591
		C323.161,35.927,323.233,35.517,323.323,35.102z M320.636,30.802c0.297,0.46,0.559,0.93,0.856,1.39
		c-0.776,1.516-1.525,3.054-2.68,4.173C318.578,34.564,319.985,32.58,320.636,30.802z M314.526,61.959
		c0.343-0.866,0.703-1.673,1.074-2.477c0.298-0.601,0.568-1.178,0.856-1.773c3.177-6.055,7.31-10.485,10.937-15.42
		c1.471,2.923,2.544,5.82,2.896,8.63c-0.28,0.185-0.551,0.37-0.83,0.564c0.271,0.993,0.532,2.012,0.803,3.005
		c-10.973,2.224-15.817,8.058-15.096,19.066C311.648,72.661,312.298,67.572,314.526,61.959z M305.729,62.501
		c0,0.014-0.01,0.036-0.026,0.036c0,0-0.019-0.022-0.028-0.036C305.684,62.501,305.719,62.501,305.729,62.501z M277.942,49.435
		c0.726,1.087,1.403,2.202,2.08,3.339c3.506,8.969,5.874,19.157,8.716,28.848c-3.533,4.357-7.683,8.075-8.396,15.42l-0.171,0.009
		c-0.434-8.477-11.365-8.518-12.2-13.409c-1.769,0.136-3.177,0.667-3.786,2.021C266.577,75.156,273.268,61.03,277.942,49.435z
		 M238.664,77.651c3.082,1.759,3.897,5.915,4.751,10.024C237.445,87.581,237.572,83.083,238.664,77.651z M192.275,78.54
		c2.481,4.398,5.779,8.86,7.71,13.187c-1.426,2.071-3.664,3.234-5.613,4.746l-2.833-0.018c-0.786-0.785-0.786-0.785-1.02-2.702
		C189.78,87.941,191.242,82.578,192.275,78.54z M161.217,74.736c3.054,5.549,2.305,15.132,4.543,21.534l-5.043-0.036
		c-0.822-5.806-4.521-9.79-9.872-11.455C151.905,78.887,158.171,78.54,161.217,74.736z M126.726,240.218h-11.514v-15.936h3.239
		v13.495h8.274V240.218z M145.088,240.218H133.15v-15.936h11.46v2.445h-8.221v4.115h7.057v2.445h-7.057v4.489h8.699V240.218z
		 M163.405,237.755c-0.351,0.627-0.848,1.142-1.497,1.552c-0.65,0.41-1.435,0.713-2.36,0.911c-0.925,0.198-1.94,0.298-3.041,0.298
		c-0.961,0-1.908-0.086-2.838-0.257c-0.929-0.172-1.701-0.411-2.319-0.718v-2.468c0.875,0.343,1.724,0.591,2.554,0.745
		c0.831,0.152,1.683,0.234,2.562,0.234c0.514,0,1.01-0.041,1.507-0.113c0.496-0.076,0.938-0.208,1.326-0.389
		c0.397-0.184,0.713-0.433,0.948-0.744c0.239-0.315,0.357-0.703,0.357-1.163c0-0.406-0.113-0.731-0.33-0.984
		c-0.221-0.248-0.523-0.451-0.902-0.613c-0.378-0.153-0.803-0.284-1.272-0.383c-0.469-0.101-0.965-0.194-1.488-0.294
		c-0.686-0.136-1.345-0.298-1.967-0.479c-0.627-0.189-1.177-0.446-1.651-0.775c-0.479-0.329-0.857-0.749-1.137-1.254
		c-0.284-0.515-0.424-1.146-0.424-1.909c0-0.844,0.163-1.574,0.487-2.197c0.325-0.622,0.767-1.137,1.327-1.547
		c0.56-0.411,1.218-0.718,1.971-0.916c0.754-0.207,1.602-0.307,2.544-0.307c0.943,0,1.891,0.086,2.843,0.252
		c0.952,0.163,1.772,0.379,2.458,0.642v2.499c-0.916-0.324-1.795-0.56-2.634-0.704c-0.844-0.148-1.634-0.226-2.374-0.226
		c-1.064,0-1.891,0.181-2.463,0.528c-0.578,0.348-0.866,0.871-0.866,1.569c0,0.406,0.09,0.74,0.28,1.002
		c0.189,0.262,0.451,0.479,0.775,0.649c0.325,0.168,0.7,0.307,1.124,0.411c0.419,0.104,0.871,0.198,1.349,0.284
		c0.749,0.145,1.461,0.312,2.147,0.496c0.681,0.185,1.29,0.447,1.813,0.78c0.533,0.334,0.948,0.767,1.259,1.3
		c0.312,0.541,0.465,1.223,0.465,2.057C163.938,236.383,163.757,237.128,163.405,237.755z M137.572,171.921v46.154h-21.566V111.971
		h74.997v16.251h-53.431v27.439h45.685v16.26H137.572z M190.547,240.218l-1.732-4.061h-6.665l-1.732,4.061h-3.452l7.02-15.936h2.96
		l7.02,15.936H190.547z M211.364,237.755c-0.352,0.627-0.848,1.142-1.498,1.552c-0.649,0.41-1.435,0.713-2.359,0.911
		c-0.925,0.198-1.94,0.298-3.041,0.298c-0.961,0-1.909-0.086-2.837-0.257c-0.93-0.172-1.701-0.411-2.32-0.718v-2.468
		c0.876,0.343,1.724,0.591,2.554,0.745c0.83,0.152,1.683,0.234,2.563,0.234c0.514,0,1.01-0.041,1.506-0.113
		c0.497-0.076,0.938-0.208,1.327-0.389c0.397-0.184,0.712-0.433,0.947-0.744c0.239-0.315,0.357-0.703,0.357-1.163
		c0-0.406-0.113-0.731-0.329-0.984c-0.221-0.248-0.523-0.451-0.902-0.613c-0.379-0.153-0.803-0.284-1.272-0.383
		c-0.469-0.101-0.965-0.194-1.489-0.294c-0.686-0.136-1.344-0.298-1.967-0.479c-0.627-0.189-1.178-0.446-1.651-0.775
		c-0.479-0.329-0.857-0.749-1.137-1.254c-0.284-0.515-0.425-1.146-0.425-1.909c0-0.844,0.163-1.574,0.487-2.197
		c0.325-0.622,0.767-1.137,1.327-1.547c0.559-0.411,1.218-0.718,1.972-0.916c0.753-0.207,1.601-0.307,2.544-0.307
		c0.942,0,1.891,0.086,2.842,0.252c0.952,0.163,1.773,0.379,2.459,0.642v2.499c-0.916-0.324-1.796-0.56-2.635-0.704
		c-0.843-0.148-1.633-0.226-2.373-0.226c-1.065,0-1.891,0.181-2.463,0.528c-0.578,0.348-0.867,0.871-0.867,1.569
		c0,0.406,0.091,0.74,0.28,1.002c0.189,0.262,0.451,0.479,0.776,0.649c0.325,0.168,0.699,0.307,1.123,0.411
		c0.42,0.104,0.871,0.198,1.349,0.284c0.749,0.145,1.462,0.312,2.148,0.496c0.681,0.185,1.29,0.447,1.813,0.78
		c0.532,0.334,0.947,0.767,1.259,1.3c0.311,0.541,0.465,1.223,0.465,2.057C211.896,236.383,211.716,237.128,211.364,237.755z
		 M230.371,237.755c-0.352,0.627-0.853,1.142-1.502,1.552c-0.646,0.41-1.435,0.713-2.36,0.911c-0.925,0.198-1.936,0.298-3.042,0.298
		c-0.96,0-1.903-0.086-2.833-0.257c-0.929-0.172-1.705-0.411-2.318-0.718v-2.468c0.871,0.343,1.724,0.591,2.549,0.745
		c0.831,0.152,1.683,0.234,2.567,0.234c0.51,0,1.01-0.041,1.507-0.113c0.491-0.076,0.934-0.208,1.326-0.389
		c0.393-0.184,0.709-0.433,0.948-0.744c0.234-0.315,0.356-0.703,0.356-1.163c0-0.406-0.113-0.731-0.334-0.984
		c-0.216-0.248-0.518-0.451-0.898-0.613c-0.378-0.153-0.803-0.284-1.276-0.383c-0.47-0.101-0.966-0.194-1.484-0.294
		c-0.69-0.136-1.345-0.298-1.972-0.479c-0.623-0.189-1.173-0.446-1.651-0.775c-0.474-0.329-0.853-0.749-1.137-1.254
		c-0.28-0.515-0.424-1.146-0.424-1.909c0-0.844,0.163-1.574,0.492-2.197c0.324-0.622,0.767-1.137,1.327-1.547
		c0.559-0.411,1.217-0.718,1.971-0.916c0.753-0.207,1.602-0.307,2.544-0.307c0.943,0,1.891,0.086,2.843,0.252
		c0.952,0.163,1.769,0.379,2.458,0.642v2.499c-0.919-0.324-1.795-0.56-2.639-0.704c-0.84-0.148-1.634-0.226-2.374-0.226
		c-1.064,0-1.886,0.181-2.463,0.528c-0.578,0.348-0.866,0.871-0.866,1.569c0,0.406,0.094,0.74,0.284,1.002
		c0.189,0.262,0.446,0.479,0.771,0.649c0.326,0.168,0.704,0.307,1.124,0.411c0.424,0.104,0.875,0.198,1.349,0.284
		c0.749,0.145,1.466,0.312,2.147,0.496c0.686,0.185,1.291,0.447,1.818,0.78c0.528,0.334,0.948,0.767,1.254,1.3
		c0.312,0.541,0.465,1.223,0.465,2.057C230.899,236.383,230.723,237.128,230.371,237.755z M253.746,235.589
		c-0.383,1.016-0.942,1.886-1.678,2.617c-0.735,0.73-1.638,1.299-2.712,1.7c-1.069,0.406-2.288,0.609-3.655,0.609
		c-1.362,0-2.584-0.203-3.654-0.609c-1.069-0.401-1.971-0.97-2.707-1.7c-0.74-0.731-1.299-1.602-1.683-2.617
		c-0.384-1.01-0.573-2.12-0.573-3.339c0-1.213,0.189-2.328,0.573-3.338c0.383-1.011,0.943-1.887,1.683-2.617
		c0.735-0.73,1.637-1.299,2.707-1.7c1.07-0.406,2.292-0.609,3.654-0.609c1.367,0,2.585,0.203,3.655,0.609
		c1.074,0.401,1.977,0.97,2.712,1.7s1.294,1.606,1.678,2.617c0.383,1.01,0.578,2.125,0.578,3.338
		C254.323,233.469,254.129,234.579,253.746,235.589z M272.646,237.755c-0.352,0.627-0.853,1.142-1.503,1.552
		c-0.646,0.41-1.435,0.713-2.36,0.911c-0.924,0.198-1.936,0.298-3.041,0.298c-0.96,0-1.904-0.086-2.833-0.257
		c-0.929-0.172-1.706-0.411-2.319-0.718v-2.468c0.871,0.343,1.724,0.591,2.549,0.745c0.831,0.152,1.683,0.234,2.567,0.234
		c0.51,0,1.011-0.041,1.507-0.113c0.492-0.076,0.935-0.208,1.327-0.389c0.393-0.184,0.708-0.433,0.947-0.744
		c0.235-0.315,0.356-0.703,0.356-1.163c0-0.406-0.113-0.731-0.333-0.984c-0.217-0.248-0.519-0.451-0.898-0.613
		c-0.379-0.153-0.803-0.284-1.276-0.383c-0.469-0.101-0.965-0.194-1.484-0.294c-0.69-0.136-1.345-0.298-1.972-0.479
		c-0.623-0.189-1.172-0.446-1.651-0.775c-0.473-0.329-0.853-0.749-1.137-1.254c-0.279-0.515-0.423-1.146-0.423-1.909
		c0-0.844,0.162-1.574,0.491-2.197c0.325-0.622,0.768-1.137,1.327-1.547c0.56-0.411,1.218-0.718,1.971-0.916
		c0.754-0.207,1.602-0.307,2.545-0.307s1.891,0.086,2.842,0.252c0.952,0.163,1.769,0.379,2.459,0.642v2.499
		c-0.92-0.324-1.796-0.56-2.639-0.704c-0.839-0.148-1.633-0.226-2.373-0.226c-1.065,0-1.886,0.181-2.463,0.528
		s-0.867,0.871-0.867,1.569c0,0.406,0.095,0.74,0.284,1.002c0.19,0.262,0.447,0.479,0.772,0.649
		c0.325,0.168,0.704,0.307,1.124,0.411c0.423,0.104,0.875,0.198,1.349,0.284c0.749,0.145,1.466,0.312,2.147,0.496
		c0.686,0.185,1.291,0.447,1.819,0.78c0.527,0.334,0.947,0.767,1.254,1.3c0.311,0.541,0.464,1.223,0.464,2.057
		C273.172,236.383,272.997,237.128,272.646,237.755z M265.485,218.075l-11.541-27.043h-44.349l-11.541,27.043h-22.973l46.74-106.104
		h19.716l46.74,106.104H265.485z M301.055,240.218h-11.938v-15.936h11.459v2.445h-8.22v4.115h7.056v2.445h-7.056v4.489h8.698
		V240.218z M293.268,223.439l1.823-2.941h3.171l-2.508,2.941H293.268z M320.798,226.728h-5.693v13.49h-3.24v-13.49h-5.712v-2.445
		h14.646V226.728z M341.488,233.667c0,0.668-0.046,1.272-0.127,1.813c-0.081,0.537-0.226,1.029-0.415,1.476
		c-0.244,0.555-0.56,1.051-0.956,1.493c-0.406,0.442-0.894,0.812-1.471,1.119c-0.578,0.307-1.237,0.542-1.985,0.704
		c-0.749,0.162-1.589,0.243-2.518,0.243c-0.92,0-1.76-0.081-2.499-0.243c-0.74-0.162-1.39-0.397-1.949-0.704
		c-0.568-0.308-1.047-0.677-1.444-1.119c-0.396-0.442-0.712-0.938-0.956-1.493c-0.189-0.446-0.324-0.938-0.415-1.476
		c-0.081-0.541-0.127-1.146-0.127-1.813v-9.385h3.24v9.123c0,1.128,0.153,2.013,0.451,2.645c0.334,0.707,0.82,1.217,1.471,1.529
		c0.641,0.315,1.398,0.474,2.273,0.474c0.866,0,1.625-0.158,2.273-0.474c0.642-0.312,1.128-0.822,1.462-1.529
		c0.298-0.632,0.452-1.517,0.452-2.645v-9.123h3.239V233.667z M363.929,234.605c-0.207,0.749-0.533,1.435-0.966,2.053
		c-0.434,0.618-0.975,1.164-1.633,1.638c-0.649,0.469-1.435,0.857-2.328,1.159c-0.749,0.253-1.605,0.447-2.554,0.573
		c-0.947,0.127-2.021,0.189-3.212,0.189h-4.205v-15.936h4.683c0.416,0,0.831,0.014,1.264,0.037c0.425,0.026,0.839,0.062,1.245,0.108
		c0.406,0.045,0.794,0.108,1.174,0.171c0.378,0.068,0.73,0.148,1.046,0.243c0.948,0.271,1.777,0.637,2.499,1.097
		c0.723,0.46,1.327,1.007,1.813,1.634c0.497,0.627,0.866,1.326,1.12,2.098c0.243,0.775,0.369,1.614,0.369,2.522
		C364.244,233.049,364.146,233.852,363.929,234.605z M374.306,240.218h-3.239v-15.936h3.239V240.218z M376.724,216.649
		c-2.734,0.631-5.784,1.2-9.159,1.705c-3.374,0.501-6.849,0.911-10.431,1.228c-3.582,0.315-7.128,0.478-10.656,0.478
		c-10.558,0-19.788-1.285-27.684-3.848c-7.886-2.567-14.464-6.172-19.716-10.823c-5.251-4.656-9.185-10.192-11.797-16.617
		c-2.612-6.419-3.916-13.521-3.916-21.29c0-5.5,0.69-10.746,2.07-15.746c1.376-4.994,3.402-9.619,6.073-13.877
		c2.671-4.255,5.91-8.103,9.727-11.536c3.816-3.434,8.175-6.371,13.075-8.802c4.899-2.433,10.268-4.295,16.105-5.595
		c5.839-1.291,12.101-1.94,18.796-1.94c5.928,0,11.559,0.383,16.9,1.15c5.342,0.767,9.709,1.701,13.119,2.815v16.495
		c-4.583-1.322-9.203-2.323-13.868-3.014c-4.665-0.686-9.375-1.033-14.13-1.033c-6.398,0-12.38,0.862-17.957,2.58
		c-5.576,1.714-10.403,4.255-14.482,7.612c-4.078,3.361-7.29,7.493-9.636,12.411c-2.347,4.918-3.52,10.602-3.52,17.049
		c0.055,12.529,3.699,21.931,10.918,28.193c7.218,6.262,17.451,9.397,30.715,9.397c2.464,0,5.017-0.121,7.661-0.355
		c2.644-0.239,4.963-0.542,6.957-0.911v-24.824h-26.411v-16.259h47.977v53.534C381.695,215.404,379.449,216.013,376.724,216.649z
		 M393.777,240.218l-1.732-4.061h-6.659l-1.732,4.061h-3.456l7.021-15.936h2.959l7.021,15.936H393.777z M418.564,240.218h-3.402
		l-5.766-7.336c-1.011-1.271-2.058-2.742-3.14-4.417h-0.081c0.108,1.954,0.162,3.465,0.162,4.534v7.219h-3.239v-15.936h3.393
		l5.82,7.408c1.263,1.63,2.301,3.072,3.095,4.336h0.071c-0.099-2.071-0.152-3.577-0.152-4.524v-7.22h3.239V240.218z
		 M439.102,226.728h-5.694v13.49h-3.239v-13.49h-5.712v-2.445h14.646V226.728z M456.931,240.218h-11.929v-15.936h11.46v2.445h-8.22
		v4.115h7.056v2.445h-7.056v4.489h8.688V240.218z M395.257,218.075V111.971h76.319v16.251h-54.753v27.439h47.011v16.26h-47.011
		v29.894h57.92v16.261H395.257z M475.257,237.755c-0.352,0.627-0.856,1.142-1.507,1.552c-0.641,0.41-1.435,0.713-2.354,0.911
		c-0.93,0.198-1.94,0.298-3.041,0.298c-0.965,0-1.904-0.086-2.834-0.257c-0.929-0.172-1.705-0.411-2.318-0.718v-2.468
		c0.866,0.343,1.724,0.591,2.544,0.745c0.831,0.152,1.688,0.234,2.572,0.234c0.505,0,1.01-0.041,1.507-0.113
		c0.487-0.076,0.93-0.208,1.327-0.389c0.388-0.184,0.703-0.433,0.947-0.744c0.234-0.315,0.352-0.703,0.352-1.163
		c0-0.406-0.108-0.731-0.334-0.984c-0.217-0.248-0.514-0.451-0.894-0.613c-0.379-0.153-0.803-0.284-1.281-0.383
		c-0.469-0.101-0.965-0.194-1.479-0.294c-0.695-0.136-1.345-0.298-1.977-0.479c-0.622-0.189-1.173-0.446-1.651-0.775
		c-0.469-0.329-0.848-0.749-1.137-1.254c-0.279-0.515-0.424-1.146-0.424-1.909c0-0.844,0.162-1.574,0.496-2.197
		c0.325-0.622,0.768-1.137,1.327-1.547c0.559-0.411,1.218-0.718,1.966-0.916c0.759-0.207,1.606-0.307,2.546-0.307
		c0.946,0,1.894,0.086,2.842,0.252c0.956,0.163,1.768,0.379,2.463,0.642v2.499c-0.921-0.324-1.795-0.56-2.644-0.704
		c-0.839-0.148-1.633-0.226-2.373-0.226c-1.064,0-1.886,0.181-2.463,0.528c-0.578,0.348-0.866,0.871-0.866,1.569
		c0,0.406,0.099,0.74,0.288,1.002c0.19,0.262,0.442,0.479,0.767,0.649c0.325,0.168,0.704,0.307,1.129,0.411
		c0.424,0.104,0.875,0.198,1.344,0.284c0.749,0.145,1.471,0.312,2.147,0.496c0.686,0.185,1.29,0.447,1.823,0.78
		c0.523,0.334,0.946,0.767,1.255,1.3c0.306,0.541,0.46,1.223,0.46,2.057C475.781,236.383,475.609,237.128,475.257,237.755z"/>
	<path fill="#00A0D1" d="M249.482,227.893c-0.465-0.488-1.02-0.849-1.665-1.083c-0.645-0.239-1.349-0.361-2.116-0.361
		c-0.767,0-1.471,0.122-2.111,0.361c-0.645,0.234-1.2,0.595-1.669,1.083c-0.465,0.486-0.831,1.092-1.096,1.813
		c-0.262,0.73-0.397,1.578-0.397,2.544c0,0.97,0.135,1.814,0.397,2.545c0.266,0.722,0.631,1.326,1.096,1.81
		c0.469,0.479,1.024,0.839,1.669,1.082c0.641,0.244,1.345,0.366,2.111,0.366c0.768,0,1.472-0.122,2.116-0.366
		c0.646-0.243,1.2-0.604,1.665-1.082c0.469-0.483,0.834-1.088,1.096-1.81c0.266-0.73,0.397-1.575,0.397-2.545
		c0-0.966-0.131-1.813-0.397-2.544C250.317,228.984,249.952,228.379,249.482,227.893z"/>
	<path fill="#00A0D1" d="M388.688,228.118c-0.622,1.669-1.172,3.059-1.659,4.178l-0.605,1.421h4.575l-0.604-1.421
		c-0.479-1.129-1.029-2.518-1.651-4.178H388.688z"/>
	<path fill="#00A0D1" d="M359.994,229.006c-0.307-0.409-0.667-0.762-1.092-1.051c-0.433-0.298-0.911-0.541-1.452-0.73
		c-0.497-0.171-1.056-0.298-1.679-0.379c-0.613-0.081-1.309-0.118-2.075-0.118h-1.426v11.05h1.336c1.895,0,3.374-0.234,4.438-0.704
		c0.948-0.42,1.661-1.033,2.147-1.836c0.479-0.799,0.723-1.823,0.723-3.068c0-0.649-0.082-1.24-0.234-1.764
		C360.518,229.882,360.292,229.417,359.994,229.006z"/>
	<path fill="#00A0D1" d="M231.594,137.506c-4.115,11.099-7.796,20.374-11.018,27.828l-4.024,9.438h30.436l-4.025-9.438
		c-3.194-7.521-6.866-16.797-11.017-27.828H231.594z"/>
</g>
</svg>
